<mxfile host="app.diagrams.net" modified="2024-01-16T12:33:10.626Z" agent="Mozilla/5.0 (X11; Linux x86_64; rv:121.0) Gecko/20100101 Firefox/121.0" etag="4opVFtl16l4zFYYbIzCJ" version="22.1.18" type="github">
  <diagram name="Page-1" id="E2e8UK9USBXzSFR0XxvL">
    <mxGraphModel dx="1434" dy="910" grid="1" gridSize="10" guides="1" tooltips="1" connect="1" arrows="1" fold="1" page="1" pageScale="1" pageWidth="827" pageHeight="1169" math="0" shadow="0">
      <root>
        <mxCell id="0" />
        <mxCell id="1" parent="0" />
        <mxCell id="QZBpqfVKkdBwkF0B8BKG-6" value="Group" style="swimlane;childLayout=stackLayout;horizontal=1;startSize=50;horizontalStack=0;rounded=1;fontSize=14;fontStyle=0;strokeWidth=2;resizeParent=0;resizeLast=1;shadow=0;dashed=0;align=center;arcSize=4;whiteSpace=wrap;html=1;" parent="1" vertex="1">
          <mxGeometry x="140" y="320" width="160" height="140" as="geometry" />
        </mxCell>
        <mxCell id="QZBpqfVKkdBwkF0B8BKG-7" value="&lt;div style=&quot;font-size: 13px;&quot;&gt;name: String&lt;br&gt;&lt;/div&gt;&lt;div style=&quot;font-size: 13px;&quot;&gt;emoji: String&lt;br&gt;&lt;/div&gt;&lt;div style=&quot;font-size: 13px;&quot;&gt;owner: Object&lt;br&gt;&lt;/div&gt;&lt;div style=&quot;font-size: 13px;&quot;&gt;members: Object[]&lt;br style=&quot;font-size: 13px;&quot;&gt;&lt;/div&gt;" style="align=left;strokeColor=none;fillColor=none;spacingLeft=4;fontSize=13;verticalAlign=top;resizable=0;rotatable=0;part=1;html=1;fontFamily=Garamond;" parent="QZBpqfVKkdBwkF0B8BKG-6" vertex="1">
          <mxGeometry y="50" width="160" height="90" as="geometry" />
        </mxCell>
        <mxCell id="QZBpqfVKkdBwkF0B8BKG-8" value="owner" style="swimlane;fontStyle=0;childLayout=stackLayout;horizontal=1;startSize=26;horizontalStack=0;resizeParent=1;resizeParentMax=0;resizeLast=0;collapsible=1;marginBottom=0;align=center;fontSize=14;" parent="1" vertex="1">
          <mxGeometry x="430" y="340" width="160" height="86" as="geometry" />
        </mxCell>
        <mxCell id="QZBpqfVKkdBwkF0B8BKG-10" value="Item 2" style="text;strokeColor=none;fillColor=none;spacingLeft=4;spacingRight=4;overflow=hidden;rotatable=0;points=[[0,0.5],[1,0.5]];portConstraint=eastwest;fontSize=12;whiteSpace=wrap;html=1;" parent="QZBpqfVKkdBwkF0B8BKG-8" vertex="1">
          <mxGeometry y="26" width="160" height="30" as="geometry" />
        </mxCell>
        <mxCell id="QZBpqfVKkdBwkF0B8BKG-11" value="Item 3" style="text;strokeColor=none;fillColor=none;spacingLeft=4;spacingRight=4;overflow=hidden;rotatable=0;points=[[0,0.5],[1,0.5]];portConstraint=eastwest;fontSize=12;whiteSpace=wrap;html=1;" parent="QZBpqfVKkdBwkF0B8BKG-8" vertex="1">
          <mxGeometry y="56" width="160" height="30" as="geometry" />
        </mxCell>
      </root>
    </mxGraphModel>
  </diagram>
</mxfile>
